# xmcd
#
# Track frame offsets:
# 150
# 28796
# 62110
# 94080
# 147166
# 195135
# 231935
# 260826
# 291233
# 312481
#
# Disc length: 4651 seconds
#
#
# Revision: 0
# Processed by: cddbd v1.5.2PL0 Copyright (c) Steve Scherf et al.
# Submitted via: FreeRIP 2.945 
#
DISCID=9312290a
DTITLE=Herriot-J1977 - Wise-Wonderful03
DYEAR=1977
DGENRE=Jungle
TTITLE0=WW 0301
TTITLE1=WW 0302
TTITLE2=WW 0303
TTITLE3=WW 0304
TTITLE4=WW 0305
TTITLE5=WW 0306
TTITLE6=WW 0307
TTITLE7=WW 0308
TTITLE8=WW 0309
TTITLE9=WW 0310
EXTD=All Things Wise and Wonderful 12 CDs\nby James Herriot - read by Christopher Timothy\nRennasance Audio - Jungle Country
EXTT0=
EXTT1=
EXTT2=
EXTT3=
EXTT4=
EXTT5=
EXTT6=
EXTT7=
EXTT8=
EXTT9=
PLAYORDER=
